<svg width="494" height="116" viewBox="0 0 494 116" fill="none" xmlns="http://www.w3.org/2000/svg">
<path d="M159.432 50.1591H150.932C150.689 48.7652 150.242 47.5303 149.591 46.4545C148.939 45.3636 148.129 44.4394 147.159 43.6818C146.189 42.9242 145.083 42.3561 143.841 41.9773C142.614 41.5833 141.288 41.3864 139.864 41.3864C137.333 41.3864 135.091 42.0227 133.136 43.2955C131.182 44.553 129.652 46.4015 128.545 48.8409C127.439 51.2652 126.886 54.2273 126.886 57.7273C126.886 61.2879 127.439 64.2879 128.545 66.7273C129.667 69.1515 131.197 70.9848 133.136 72.2273C135.091 73.4545 137.326 74.0682 139.841 74.0682C141.235 74.0682 142.538 73.8864 143.75 73.5227C144.977 73.1439 146.076 72.5909 147.045 71.8636C148.03 71.1364 148.856 70.2424 149.523 69.1818C150.205 68.1212 150.674 66.9091 150.932 65.5455L159.432 65.5909C159.114 67.803 158.424 69.8788 157.364 71.8182C156.318 73.7576 154.947 75.4697 153.25 76.9545C151.553 78.4242 149.568 79.5758 147.295 80.4091C145.023 81.2273 142.5 81.6364 139.727 81.6364C135.636 81.6364 131.985 80.6894 128.773 78.7955C125.561 76.9015 123.03 74.1667 121.182 70.5909C119.333 67.0152 118.409 62.7273 118.409 57.7273C118.409 52.7121 119.341 48.4242 121.205 44.8636C123.068 41.2879 125.606 38.553 128.818 36.6591C132.03 34.7651 135.667 33.8182 139.727 33.8182C142.318 33.8182 144.727 34.1818 146.955 34.9091C149.182 35.6364 151.167 36.7045 152.909 38.1136C154.652 39.5076 156.083 41.2197 157.205 43.25C158.341 45.2652 159.083 47.5682 159.432 50.1591ZM175.017 60.5455V81H166.79V34.4545H174.835V52.0227H175.244C176.063 50.053 177.328 48.5 179.04 47.3636C180.767 46.2121 182.964 45.6364 185.631 45.6364C188.055 45.6364 190.169 46.1439 191.972 47.1591C193.775 48.1742 195.169 49.6591 196.153 51.6136C197.153 53.5682 197.653 55.9545 197.653 58.7727V81H189.426V60.0455C189.426 57.697 188.82 55.8712 187.608 54.5682C186.411 53.25 184.729 52.5909 182.562 52.5909C181.108 52.5909 179.805 52.9091 178.653 53.5455C177.517 54.1667 176.623 55.0682 175.972 56.25C175.335 57.4318 175.017 58.8636 175.017 60.5455ZM216.085 81.7045C213.873 81.7045 211.881 81.3106 210.108 80.5227C208.35 79.7197 206.956 78.5379 205.926 76.9773C204.911 75.4167 204.403 73.4924 204.403 71.2045C204.403 69.2348 204.767 67.6061 205.494 66.3182C206.222 65.0303 207.214 64 208.472 63.2273C209.729 62.4545 211.146 61.8712 212.722 61.4773C214.313 61.0682 215.956 60.7727 217.653 60.5909C219.699 60.3788 221.358 60.1894 222.631 60.0227C223.903 59.8409 224.828 59.5682 225.403 59.2045C225.994 58.8258 226.29 58.2424 226.29 57.4545V57.3182C226.29 55.6061 225.782 54.2803 224.767 53.3409C223.752 52.4015 222.29 51.9318 220.381 51.9318C218.366 51.9318 216.767 52.3712 215.585 53.25C214.419 54.1288 213.631 55.1667 213.222 56.3636L205.54 55.2727C206.146 53.1515 207.146 51.3788 208.54 49.9545C209.934 48.5151 211.638 47.4394 213.653 46.7273C215.669 46 217.896 45.6364 220.335 45.6364C222.017 45.6364 223.691 45.8333 225.358 46.2273C227.025 46.6212 228.547 47.2727 229.926 48.1818C231.305 49.0758 232.411 50.2955 233.244 51.8409C234.093 53.3864 234.517 55.3182 234.517 57.6364V81H226.608V76.2045H226.335C225.835 77.1742 225.131 78.0833 224.222 78.9318C223.328 79.7652 222.199 80.4394 220.835 80.9545C219.487 81.4545 217.903 81.7045 216.085 81.7045ZM218.222 75.6591C219.873 75.6591 221.305 75.3333 222.517 74.6818C223.729 74.0152 224.661 73.1364 225.312 72.0455C225.979 70.9545 226.312 69.7652 226.312 68.4773V64.3636C226.055 64.5758 225.616 64.7727 224.994 64.9545C224.388 65.1364 223.706 65.2955 222.949 65.4318C222.191 65.5682 221.441 65.6894 220.699 65.7955C219.956 65.9015 219.313 65.9924 218.767 66.0682C217.54 66.2348 216.441 66.5076 215.472 66.8864C214.502 67.2652 213.737 67.7955 213.176 68.4773C212.616 69.1439 212.335 70.0076 212.335 71.0682C212.335 72.5833 212.888 73.7273 213.994 74.5C215.1 75.2727 216.509 75.6591 218.222 75.6591ZM242.79 81V46.0909H251.017V81H242.79ZM246.926 41.1364C245.623 41.1364 244.502 40.7045 243.562 39.8409C242.623 38.9621 242.153 37.9091 242.153 36.6818C242.153 35.4394 242.623 34.3864 243.562 33.5227C244.502 32.6439 245.623 32.2045 246.926 32.2045C248.244 32.2045 249.366 32.6439 250.29 33.5227C251.229 34.3864 251.699 35.4394 251.699 36.6818C251.699 37.9091 251.229 38.9621 250.29 39.8409C249.366 40.7045 248.244 41.1364 246.926 41.1364ZM267.705 60.5455V81H259.477V46.0909H267.341V52.0227H267.75C268.553 50.0682 269.833 48.5152 271.591 47.3636C273.364 46.2121 275.553 45.6364 278.159 45.6364C280.568 45.6364 282.667 46.1515 284.455 47.1818C286.258 48.2121 287.652 49.7045 288.636 51.6591C289.636 53.6136 290.129 55.9848 290.114 58.7727V81H281.886V60.0455C281.886 57.7121 281.28 55.8864 280.068 54.5682C278.871 53.25 277.212 52.5909 275.091 52.5909C273.652 52.5909 272.371 52.9091 271.25 53.5455C270.144 54.1667 269.273 55.0682 268.636 56.25C268.015 57.4318 267.705 58.8636 267.705 60.5455ZM306.705 34.4545V81H298.477V34.4545H306.705ZM315.165 81V46.0909H323.392V81H315.165ZM319.301 41.1364C317.998 41.1364 316.877 40.7045 315.938 39.8409C314.998 38.9621 314.528 37.9091 314.528 36.6818C314.528 35.4394 314.998 34.3864 315.938 33.5227C316.877 32.6439 317.998 32.2045 319.301 32.2045C320.619 32.2045 321.741 32.6439 322.665 33.5227C323.604 34.3864 324.074 35.4394 324.074 36.6818C324.074 37.9091 323.604 38.9621 322.665 39.8409C321.741 40.7045 320.619 41.1364 319.301 41.1364ZM340.08 60.5455V81H331.852V46.0909H339.716V52.0227H340.125C340.928 50.0682 342.208 48.5152 343.966 47.3636C345.739 46.2121 347.928 45.6364 350.534 45.6364C352.943 45.6364 355.042 46.1515 356.83 47.1818C358.633 48.2121 360.027 49.7045 361.011 51.6591C362.011 53.6136 362.504 55.9848 362.489 58.7727V81H354.261V60.0455C354.261 57.7121 353.655 55.8864 352.443 54.5682C351.246 53.25 349.587 52.5909 347.466 52.5909C346.027 52.5909 344.746 52.9091 343.625 53.5455C342.519 54.1667 341.648 55.0682 341.011 56.25C340.39 57.4318 340.08 58.8636 340.08 60.5455ZM378.352 70.0455L378.33 60.1136H379.648L392.193 46.0909H401.807L386.375 63.2727H384.67L378.352 70.0455ZM370.852 81V34.4545H379.08V81H370.852ZM392.761 81L381.398 65.1136L386.943 59.3182L402.602 81H392.761ZM412.358 81.5C410.979 81.5 409.797 81.0152 408.812 80.0455C407.828 79.0758 407.343 77.8939 407.358 76.5C407.343 75.1364 407.828 73.9697 408.812 73C409.797 72.0303 410.979 71.5455 412.358 71.5455C413.691 71.5455 414.85 72.0303 415.835 73C416.835 73.9697 417.343 75.1364 417.358 76.5C417.343 77.4242 417.1 78.2652 416.631 79.0227C416.176 79.7803 415.57 80.3864 414.812 80.8409C414.07 81.2803 413.252 81.5 412.358 81.5ZM431.33 87.9091C429.852 87.9091 428.583 87.7083 427.523 87.3068C426.462 86.9129 425.61 86.3826 424.966 85.7159C424.322 85.0492 423.875 84.3106 423.625 83.5L427.33 82.6023C427.496 82.9432 427.739 83.2803 428.057 83.6136C428.375 83.9545 428.803 84.2348 429.341 84.4545C429.886 84.6818 430.572 84.7955 431.398 84.7955C432.564 84.7955 433.53 84.5114 434.295 83.9432C435.061 83.3826 435.443 82.4583 435.443 81.1705V77.8636H435.239C435.027 78.2879 434.716 78.7235 434.307 79.1705C433.905 79.6174 433.371 79.9924 432.705 80.2955C432.045 80.5985 431.216 80.75 430.216 80.75C428.875 80.75 427.659 80.4356 426.568 79.8068C425.485 79.1705 424.621 78.2235 423.977 76.9659C423.341 75.7008 423.023 74.1174 423.023 72.2159C423.023 70.2992 423.341 68.6818 423.977 67.3636C424.621 66.0379 425.489 65.0341 426.58 64.3523C427.67 63.6629 428.886 63.3182 430.227 63.3182C431.25 63.3182 432.091 63.4924 432.75 63.8409C433.417 64.1818 433.947 64.5947 434.341 65.0795C434.735 65.5568 435.034 66.0076 435.239 66.4318H435.466V63.5455H439.523V81.2841C439.523 82.7765 439.167 84.0114 438.455 84.9886C437.742 85.9659 436.769 86.697 435.534 87.1818C434.299 87.6667 432.898 87.9091 431.33 87.9091ZM431.364 77.5227C432.235 77.5227 432.977 77.3106 433.591 76.8864C434.205 76.4621 434.67 75.8523 434.989 75.0568C435.307 74.2614 435.466 73.3068 435.466 72.1932C435.466 71.0947 435.307 70.1326 434.989 69.3068C434.678 68.4811 434.216 67.8409 433.602 67.3864C432.996 66.9242 432.25 66.6932 431.364 66.6932C430.447 66.6932 429.682 66.9318 429.068 67.4091C428.455 67.8864 427.992 68.5417 427.682 69.375C427.371 70.2008 427.216 71.1402 427.216 72.1932C427.216 73.2614 427.371 74.197 427.682 75C428 75.7955 428.466 76.4167 429.08 76.8636C429.701 77.303 430.462 77.5227 431.364 77.5227ZM454.864 73.6591V63.5455H458.977V81H454.989V77.8977H454.807C454.413 78.875 453.765 79.6742 452.864 80.2955C451.97 80.9167 450.867 81.2273 449.557 81.2273C448.413 81.2273 447.402 80.9735 446.523 80.4659C445.652 79.9508 444.97 79.2045 444.477 78.2273C443.985 77.2424 443.739 76.053 443.739 74.6591V63.5455H447.852V74.0227C447.852 75.1288 448.155 76.0076 448.761 76.6591C449.367 77.3106 450.163 77.6364 451.148 77.6364C451.754 77.6364 452.341 77.4886 452.909 77.1932C453.477 76.8977 453.943 76.4583 454.307 75.875C454.678 75.2841 454.864 74.5455 454.864 73.6591ZM463.207 81V63.5455H467.196V66.4545H467.378C467.696 65.447 468.241 64.6705 469.014 64.125C469.795 63.572 470.685 63.2955 471.685 63.2955C471.912 63.2955 472.166 63.3068 472.446 63.3295C472.734 63.3447 472.973 63.3712 473.162 63.4091V67.1932C472.988 67.1326 472.711 67.0795 472.332 67.0341C471.961 66.9811 471.601 66.9545 471.253 66.9545C470.503 66.9545 469.829 67.1174 469.23 67.4432C468.639 67.7614 468.173 68.2045 467.832 68.7727C467.491 69.3409 467.321 69.9962 467.321 70.7386V81H463.207ZM487.02 73.6591V63.5455H491.134V81H487.145V77.8977H486.963C486.569 78.875 485.921 79.6742 485.02 80.2955C484.126 80.9167 483.024 81.2273 481.713 81.2273C480.569 81.2273 479.558 80.9735 478.679 80.4659C477.808 79.9508 477.126 79.2045 476.634 78.2273C476.141 77.2424 475.895 76.053 475.895 74.6591V63.5455H480.009V74.0227C480.009 75.1288 480.312 76.0076 480.918 76.6591C481.524 77.3106 482.319 77.6364 483.304 77.6364C483.91 77.6364 484.497 77.4886 485.065 77.1932C485.634 76.8977 486.099 76.4583 486.463 75.875C486.834 75.2841 487.02 74.5455 487.02 73.6591Z" fill="white"/>
<path d="M50 0L39.418 6.08466L10.582 22.7513L0 28.836V86.5079L10.582 92.5926L39.6825 109.259L50.2646 115.344L60.8466 109.259L89.418 92.5926L100 86.5079V28.836L89.418 22.7513L60.582 6.08466L50 0ZM21.164 74.3386V41.0053L50 24.3386L78.836 41.0053V74.3386L50 91.0053L21.164 74.3386Z" fill="#2A5ADA"/>
</svg>
